<svg xmlns="http://www.w3.org/2000/svg" viewBox="0 0 1440 320" class="w-full h-full">
  <defs>
    <style>
      .wave1, .wave2, .wave3 {
        animation: wave-animation linear infinite;
      }
      .wave1 {
        animation-duration: 15s;
        animation-delay: -2s;
      }
      .wave2 {
        animation-duration: 20s;
      }
      .wave3 {
        animation-duration: 25s;
        animation-delay: -4s;
      }
      @keyframes wave-animation {
        0% {
          transform: translateX(0);
        }
        100% {
          transform: translateX(-1440px);
        }
      }
    </style>
  </defs>
  <g>
    <path class="wave1" fill="hsl(220 39% 26% / 0.7)" d="M0,192L48,176C96,160,192,128,288,133.3C384,139,480,181,576,186.7C672,192,768,160,864,144C960,128,1056,128,1152,149.3C1248,171,1344,213,1392,234.7L1440,256L1440,320L1392,320C1344,320,1248,320,1152,320C1056,320,960,320,864,320C768,320,672,320,576,320C480,320,384,320,288,320C192,320,96,320,48,320L0,320Z"></path>
    <use href="#wave-path" />
  </g>
  <g>
    <path class="wave2" fill="hsl(220 39% 26% / 0.5)" d="M0,224L48,229.3C96,235,192,245,288,250.7C384,256,480,256,576,234.7C672,213,768,171,864,165.3C960,160,1056,192,1152,208C1248,224,1344,224,1392,224L1440,224L1440,320L1392,320C1344,320,1248,320,1152,320C1056,320,960,320,864,320C768,320,672,320,576,320C480,320,384,320,288,320C192,320,96,320,48,320L0,320Z"></path>
  </g>
  <g>
    <path class="wave3" fill="hsl(220 39% 26% / 0.3)" d="M0,160L48,170.7C96,181,192,203,288,192C384,181,480,139,576,144C672,149,768,203,864,224C960,245,1056,235,1152,208C1248,181,1344,139,1392,117.3L1440,96L1440,320L1392,320C1344,320,1248,320,1152,320C1056,320,960,320,864,320C768,320,672,320,576,320C480,320,384,320,288,320C192,320,96,320,48,320L0,320Z"></path>
  </g>
</svg>
